<svg xmlns="http://www.w3.org/2000/svg" viewBox="0 0 512 512">
  <path fill="#0F4C75" d="M256 352a32 32 0 1 0 32 32 32 32 0 0 0-32-32z"/>
  <path fill="#0F4C75" d="M256 288a96 96 0 0 0-67.9 28.1l22.6 22.6a64 64 0 0 1 90.6 0l22.6-22.6A96 96 0 0 0 256 288z"/>
  <path fill="#0F4C75" d="M256 224a160 160 0 0 0-113.1 46.9l22.6 22.6a128 128 0 0 1 181 0l22.6-22.6A160 160 0 0 0 256 224z"/>
  <path fill="#0F4C75" d="M256 160A224 224 0 0 0 98.7 205.3l22.6 22.6a192 192 0 0 1 269.4 0l22.6-22.6A224 224 0 0 0 256 160z"/>
</svg>